<svg id="Ebene_1" data-name="Ebene 1" xmlns="http://www.w3.org/2000/svg" viewBox="0 0 1000 1000"><defs><style>.cls-1{fill:#fff;}</style></defs><path class="cls-1" d="M640.86,751.08a2.88,2.88,0,0,1-3.05-3.05V714.49a5.16,5.16,0,0,1,.91-3l89.33-127.13v-.61H644.21a2.88,2.88,0,0,1-3.05-3.05V546.81a2.88,2.88,0,0,1,3.05-3H776.84a2.88,2.88,0,0,1,3,3v33.54a5.16,5.16,0,0,1-.91,3L689.33,710.53v.61h87.51a2.88,2.88,0,0,1,3,3.05V748a2.88,2.88,0,0,1-3,3.05ZM555,673.64H507.14l23.48-72.56h.91ZM624.82,748,554.7,546.81a4,4,0,0,0-4-3H512.32a4,4,0,0,0-4,3L437,748c-.61,1.83,0,3.05,2.14,3.05h39.93a3.68,3.68,0,0,0,4-3.05l11.58-36.28H567.2L579.09,748a3.67,3.67,0,0,0,4,3.05h39.64c2.13,0,2.74-1.22,2.13-3.05m-252.56,3.05a4,4,0,0,1-4-3.05l-36-129h-.61L295.43,748a4,4,0,0,1-4,3.05H261c-1.83,0-3.05-1.22-3.66-3.05L203.67,546.81c-.31-1.83.3-3,2.43-3h39.33a3.41,3.41,0,0,1,3.66,3L279,677h.61l35.36-130.18a4,4,0,0,1,4-3h26.52c1.83,0,3.05,1.22,3.66,3L385.67,677h.61l28.66-130.18c.31-2.13,1.53-3,3.66-3h39c2.14,0,2.75,1.22,2.44,3L406.71,748a3.72,3.72,0,0,1-4,3.05Zm300.79-341a3,3,0,0,0,3.22-3.22V371.13a3,3,0,0,0-3.22-3.21H580.66v-.65L675.3,233a5.41,5.41,0,0,0,1-3.22V194.39a3,3,0,0,0-3.22-3.22H533a3,3,0,0,0-3.22,3.22v35.73a3,3,0,0,0,3.22,3.22h88.53V234L527.21,368.23a5.51,5.51,0,0,0-1,3.23v35.41a3,3,0,0,0,3.23,3.22ZM384.59,328.31l24.79-76.61h1l24.79,76.61Zm-74,78.56c-.65,1.93,0,3.22,2.25,3.22H355a3.88,3.88,0,0,0,4.19-3.22l12.23-38.31H448l12.56,38.31a3.88,3.88,0,0,0,4.18,3.22h41.86c2.25,0,2.89-1.29,2.25-3.22l-74-212.48a4.18,4.18,0,0,0-4.19-3.22H390.07a4.17,4.17,0,0,0-4.19,3.22ZM187.76,474.54a7.12,7.12,0,0,0,0,14.24H819.39a7.12,7.12,0,0,0,0-14.24ZM946,500c0,244.32-198.07,442.38-442.39,442.38S61.19,744.32,61.19,500,259.25,57.61,503.57,57.61,946,255.68,946,500m47.62,0c0-270.62-219.39-490-490-490s-490,219.38-490,490S233,990,503.57,990s490-219.38,490-490"/></svg>