<?xml version="1.0" encoding="utf-8"?>
<!-- Generator: Adobe Illustrator 26.0.3, SVG Export Plug-In . SVG Version: 6.00 Build 0)  -->
<svg version="1.1" id="Ebene_1" xmlns="http://www.w3.org/2000/svg" xmlns:xlink="http://www.w3.org/1999/xlink" x="0px" y="0px"
	 viewBox="0 0 1000 1000" style="enable-background:new 0 0 1000 1000;" xml:space="preserve">
<style type="text/css">
	.st0{opacity:0.6;stroke:#1D1D1B;stroke-width:0.25;stroke-miterlimit:10;}
	.st1{opacity:0.6;}
</style>
<path class="st0" d="M644.1,250.9"/>
<path class="st1" d="M390.7,489.9L390.7,489.9C389.5,443.8,375.9,333,265.6,333h-2.9h-5.1H161v19.3H181l0,283.8l-17.5-0.1v17.2
	l98.3,0v0h3.8v0c110.4,0,124-110.8,125-156.8h0.1c0-1,0-2.1,0-3.3C390.7,492,390.7,490.9,390.7,489.9z M265.6,635.7h-3.7h-3.1h-17.4
	l0-285.1l21.2,0h2.9c58.2,0,64,78.5,64.2,142.6C329.6,557.2,323.7,635.7,265.6,635.7z"/>
<path class="st1" d="M942.4,500c0,244.3-198.1,442.4-442.4,442.4C255.7,942.4,57.6,744.3,57.6,500S255.7,57.6,500,57.6
	C744.3,57.6,942.4,255.7,942.4,500 M990,500c0-270.6-219.4-490-490-490C229.4,10,10,229.4,10,500s219.4,490,490,490
	C770.6,990,990,770.6,990,500"/>
<polygon class="st1" points="843.6,333 789.9,333 789.9,350.9 807.8,350.9 807.8,576.5 684.8,333 560.1,333 560.1,350.9 578,350.9 
	578,576.5 454.9,333 394.1,333 394.1,350.9 412,350.9 412,635.3 394.1,635.3 394.1,653.2 447.8,653.2 447.8,635.3 429.9,635.3 
	429.9,412.9 551.4,653.2 595.8,653.2 595.8,350.9 595.8,350.9 641.9,350.9 641.9,635.3 624,635.3 624,653.2 677.7,653.2 
	677.7,635.3 659.8,635.3 659.8,412.9 781.2,653.2 825.7,653.2 825.7,350.9 843.6,350.9 "/>
</svg>
