<svg id="Ebene_1" data-name="Ebene 1" xmlns="http://www.w3.org/2000/svg" viewBox="0 0 1000 1000"><defs><style>.cls-1{opacity:0.6;}</style></defs><g class="cls-1"><path d="M586.78,430.83a3.19,3.19,0,0,1-3.38-3.38V247.07a1.8,1.8,0,0,0-2-2h-58.2a3.19,3.19,0,0,1-3.38-3.38V204.1a3.19,3.19,0,0,1,3.38-3.39H693.38a3.2,3.2,0,0,1,3.39,3.39v37.56a3.2,3.2,0,0,1-3.39,3.38H635.17a1.79,1.79,0,0,0-2,2V427.45a3.2,3.2,0,0,1-3.4,3.38ZM334.55,380.62c11.84,38.35,43.65,57.53,84.6,57.53,40.61,0,72.42-21.27,83.93-59.27,4.05-12.9,5.75-32.43,5.75-53.35V306a3.25,3.25,0,0,0-3.39-3.49H426.26a3.26,3.26,0,0,0-3.39,3.49v33.47a3.26,3.26,0,0,0,3.39,3.49h31.13a1.82,1.82,0,0,1,2,2.09c0,10.11-1,17.43-2.71,23.36-4.74,15.69-19.62,24.41-36.88,24.41-20,0-32.49-9.77-37.57-26.15-2.7-8.37-3.72-19.87-3.72-50.91s1-42.19,3.72-50.55c5.08-16.39,17.26-26.5,36.89-26.5,19,0,30.45,8.36,39.59,24.4.68,1.74,2.37,2.44,4.74,1.74l36.22-15.68c2-1.05,2.36-3.14,1.35-5.24-10.83-28.59-38.92-50.55-81.9-50.55-40.95,0-72.76,19.17-84.6,57.53-5.08,16.38-6.43,29.64-6.43,64.85s1.35,48.47,6.43,64.85m-1.21,191.3a3.2,3.2,0,0,1,3.39-3.38H484.34a3.2,3.2,0,0,1,3.39,3.38v36.23a3.2,3.2,0,0,1-3.39,3.38h-99.2a1.8,1.8,0,0,0-2,2v45.71a1.8,1.8,0,0,0,2,2h82.61a3.2,3.2,0,0,1,3.39,3.39v35.88a3.21,3.21,0,0,1-3.39,3.39H385.14a1.79,1.79,0,0,0-2,2v47.73a1.8,1.8,0,0,0,2,2h99.2a3.2,3.2,0,0,1,3.39,3.38v36.23a3.2,3.2,0,0,1-3.39,3.38H336.73a3.2,3.2,0,0,1-3.39-3.38ZM624.5,798.75a3.19,3.19,0,0,0,3.39-3.38V614.92a1.8,1.8,0,0,1,2-2h58.23a3.19,3.19,0,0,0,3.39-3.38V571.92a3.19,3.19,0,0,0-3.39-3.38H517.86a3.19,3.19,0,0,0-3.38,3.38V609.5a3.19,3.19,0,0,0,3.38,3.38h58.23a1.8,1.8,0,0,1,2,2V795.37a3.19,3.19,0,0,0,3.39,3.38ZM815.81,492.88a7.12,7.12,0,0,1,0,14.24H184.19a7.12,7.12,0,0,1,0-14.24ZM942.39,500c0,244.32-198.07,442.39-442.39,442.39S57.61,744.32,57.61,500,255.68,57.61,500,57.61,942.39,255.68,942.39,500M990,500C990,229.38,770.62,10,500,10S10,229.38,10,500,229.38,990,500,990,990,770.62,990,500"/></g></svg>