<svg id="Ebene_1" data-name="Ebene 1" xmlns="http://www.w3.org/2000/svg" viewBox="0 0 1000 1000"><defs><style>.cls-1{opacity:0.6;}.cls-2{fill:#fff;}</style></defs><g class="cls-1"><path class="cls-2" d="M837.5,629.51a3.67,3.67,0,0,0,3.87-3.88v-43a3.65,3.65,0,0,0-3.87-3.87H726.36V578L840.21,416.53a6.61,6.61,0,0,0,1.16-3.88V370.06a3.66,3.66,0,0,0-3.87-3.88H669.06a3.66,3.66,0,0,0-3.87,3.88v43a3.65,3.65,0,0,0,3.87,3.87H775.54v.78L662.09,579.16a6.57,6.57,0,0,0-1.16,3.88v42.59a3.66,3.66,0,0,0,3.86,3.88ZM492.14,370.06c.78-2.33,2.32-3.87,5-3.87H546c2.71,0,4.26,1.54,5,3.87l89.07,255.63c.78,2.32,0,3.87-2.71,3.87H587c-2.71,0-4.25-1.16-5-3.87l-15.1-46.08H474.72L460,625.69c-.78,2.71-2.32,3.87-5,3.87H404.25c-2.72,0-3.49-1.55-2.72-3.87Zm59.25,161.09L521.58,439h-1.17L490.6,531.15ZM166.48,625.69a3.66,3.66,0,0,0,3.87,3.87h49.18a3.67,3.67,0,0,0,3.88-3.87V524.24a2,2,0,0,1,2.32-2.33h86a2,2,0,0,1,2.31,2.33V625.69a3.67,3.67,0,0,0,3.88,3.87h49.18a3.66,3.66,0,0,0,3.87-3.87V370.06a3.65,3.65,0,0,0-3.87-3.87H317.89a3.66,3.66,0,0,0-3.88,3.87V468.8a2.05,2.05,0,0,1-2.31,2.33h-86a2.05,2.05,0,0,1-2.32-2.33V370.06a3.66,3.66,0,0,0-3.88-3.87H170.35a3.65,3.65,0,0,0-3.87,3.87ZM942.38,500c0,244.32-198.06,442.38-442.38,442.38S57.62,744.32,57.62,500,255.68,57.62,500,57.62,942.38,255.68,942.38,500M990,500C990,229.38,770.62,10,500,10S10,229.38,10,500,229.38,990,500,990,990,770.62,990,500"/></g></svg>