<?xml version="1.0" encoding="utf-8"?>
<!-- Generator: Adobe Illustrator 26.0.3, SVG Export Plug-In . SVG Version: 6.00 Build 0)  -->
<svg version="1.1" id="Ebene_1" xmlns="http://www.w3.org/2000/svg" xmlns:xlink="http://www.w3.org/1999/xlink" x="0px" y="0px"
	 viewBox="0 0 1000 1000" style="enable-background:new 0 0 1000 1000;" xml:space="preserve">
<style type="text/css">
	.st0{opacity:0.6;}
	.st1{fill:#FFFFFF;stroke:#1D1D1B;stroke-width:0.25;stroke-miterlimit:10;}
	.st2{fill:#FFFFFF;}
</style>
<g class="st0">
	<path class="st1" d="M962.3,375.4"/>
	<path class="st1" d="M962.3,375.4"/>
	<path class="st2" d="M990,500c0-270.6-219.4-490-490-490C229.4,10,10,229.4,10,500s219.4,490,490,490C770.6,990,990,770.6,990,500
		 M942.4,500c0,244.3-198.1,442.4-442.4,442.4S57.6,744.3,57.6,500S255.7,57.6,500,57.6S942.4,255.7,942.4,500"/>
	<path class="st2" d="M794.3,279.4H464.8C508,298,544.6,329,570.3,367.9h0l0.3,0.5c0.1,0.2,0.2,0.3,0.3,0.5c0,0,0,0,0,0l107.7,171.4
		h0.7v-142h-23.5v-30.3h95.1v30.3h-22.5v232.3H673L568.2,465.9h-0.8V600h19.4v30.4c-26.9,39.3-64.9,71.6-110.5,90.2h318
		c12.7,0,23-10.6,23-23.6V303C817.3,290,807,279.4,794.3,279.4z"/>
	<path class="st2" d="M496.4,600h22V398.2h-22v-30.3l62,0c-43.1-61.5-112.8-98-188-98c-126.9,0-230.1,103.2-230.1,230.1
		c0,126.9,103.2,230.1,230.1,230.1c0.4,0,0.8,0,1.2,0l1.3,0h0.2l0.2,0c1.3,0,2.6,0.1,3.9,0.1c79.7,0,153.2-37.4,198.3-99.6h-79V600z
		 M484.4,630H374.1v-30h21.3l-48.6-82.6l-37,36.6v46h22v30.3h-97.9V600h21.9V398.2h-21.9v-30.3h97.8v30.3h-22v98.1l82.9-98.1H373
		v-30.3h107.5v30.3l-24.7,0l-68.2,81.4L463.9,600h20.4V630z"/>
</g>
</svg>
