<?xml version="1.0" encoding="utf-8"?>
<!-- Generator: Adobe Illustrator 26.0.3, SVG Export Plug-In . SVG Version: 6.00 Build 0)  -->
<svg version="1.1" id="Ebene_1" xmlns="http://www.w3.org/2000/svg" xmlns:xlink="http://www.w3.org/1999/xlink" x="0px" y="0px"
	 viewBox="0 0 1000 1000" style="enable-background:new 0 0 1000 1000;" xml:space="preserve">
<style type="text/css">
	.st0{fill:#E30613;stroke:#1D1D1B;stroke-width:0.25;stroke-miterlimit:10;}
	.st1{fill:#4F80FF;}
	.st2{fill:#F33C22;}
</style>
<path class="st0" d="M8.7,375.4"/>
<g>
	<path class="st1" d="M990,500c0-270.6-219.4-490-490-490C229.4,10,10,229.4,10,500s219.4,490,490,490C770.6,990,990,770.6,990,500
		 M942.4,500c0,244.3-198.1,442.4-442.4,442.4S57.6,744.3,57.6,500S255.7,57.6,500,57.6S942.4,255.7,942.4,500"/>
	<g>
		<path class="st2" d="M497,600.9h22V399.1h-22v-30.3l73.9,0.1c-25.7-39.4-62.6-70.7-106.1-89.4c-29-12.5-60.9-19.4-94.5-19.4
			c-132.5,0-240,107.4-240,240c0,132.5,107.4,240,240,240c0.9,0,1.7,0,2.6-0.1c1.4,0,2.7,0.1,4.2,0.1c35.2,0,68.7-6.9,99.1-19.4
			c45.6-18.7,84.2-49.9,111.1-89.2H497V600.9z M485,630.9H374.7v-30H396l-48.6-82.6l-37,36.6v46h22v30.3h-97.9v-30.3h21.9V399.1
			h-21.9v-30.3h97.8v30.3h-22v98.1l82.9-98.1h-19.6v-30.3h107.5v30.3l-24.7,0l-68.2,81.4l76.3,120.3H485V630.9z"/>
		<path class="st1" d="M794.3,279.4H464.8c43.6,18.7,80.4,50,106.1,89.4h0l108.3,172.3h0.7v-142h-23.5v-30.3h95.1v30.3h-22.5v232.3
			h-55.5L568.8,466.8H568v134.1h19.4v30.5l0,0c-26.9,39.3-65.5,70.5-111.1,89.2h318c12.7,0,23-10.6,23-23.6V303
			C817.3,290,807,279.4,794.3,279.4z"/>
	</g>
</g>
</svg>
