<?xml version="1.0" encoding="utf-8"?>
<!-- Generator: Adobe Illustrator 26.0.3, SVG Export Plug-In . SVG Version: 6.00 Build 0)  -->
<svg version="1.1" id="Ebene_1" xmlns="http://www.w3.org/2000/svg" xmlns:xlink="http://www.w3.org/1999/xlink" x="0px" y="0px"
	 viewBox="0 0 1000 1000" style="enable-background:new 0 0 1000 1000;" xml:space="preserve">
<style type="text/css">
	.st0{fill:#FFFFFF;}
</style>
<g>
	<path class="st0" d="M279,409.3c0-2.5,1.7-4.2,4.2-4.2h53.2c2.5,0,4.2,1.7,4.2,4.2v223.1c0,1.7,0.8,2.5,2.5,2.5h125.6
		c2.5,0,4.2,1.7,4.2,4.2v46.5c0,2.5-1.7,4.2-4.2,4.2H283.2c-2.5,0-4.2-1.7-4.2-4.2V409.3z"/>
	<path class="st0" d="M509.6,409.3c0-2.5,1.7-4.2,4.2-4.2H564c2.9,0,5.4,1.3,7.1,4.2l100.5,179.2h2.1V409.3c0-2.5,1.7-4.2,4.2-4.2
		h47.3c2.5,0,4.2,1.7,4.2,4.2v276.3c0,2.5-1.7,4.2-4.2,4.2h-49.8c-3.3,0-5.4-1.3-7.1-4.2L567.4,506.8h-2.1v178.7
		c0,2.5-1.7,4.2-4.2,4.2h-47.3c-2.5,0-4.2-1.7-4.2-4.2V409.3z"/>
	<path class="st0" d="M491.7,359.3c-0.2-0.1-0.5-0.3-0.8-0.5c-3.3-2-11.9-7.2-30.4-10c-5.5-0.8-11.2-1.6-16.7-2.4
		c-15.1-2.1-29.3-4.2-37.1-6c-3.5-0.8-9.1-2.3-15-3.8c-11.9-3.1-25.4-6.6-29.1-7c-1.8-0.2-3.1-0.4-4.3-0.6c-2.5-0.4-4.4-0.6-8-0.5
		c-4.7,0.1-8.3,1.3-9.6,2.1c-0.9,0.5-2,1.6-1.7,2.3c0.2,0.5,1.1,0.6,2.8,0.3c5.9-1.1,13-0.7,19.2,1c1.2,0.4,4.7,1.5,9,3
		c11,3.7,27.6,9.3,35.1,10.9c7.7,1.7,24,4.6,46.8,5.4c19.7,0.7,31.1,4.7,37.9,7.7c0.6,0.3,1.2,0.4,1.7,0.4c0.7,0,1.2-0.2,1.4-0.6
		C493.1,360.5,492.7,359.8,491.7,359.3z"/>
	<path class="st0" d="M454.1,482.6c-0.4-1.5-1.7-6.5-3.5-12.7c-3.5-12.4-8.7-31.2-10.5-39.5c-2.3-10.5-2-22.8,0.8-32.8
		c0.7-2.6,1.9-6.4,3.2-10.5c3.6-11.5,6.1-19.8,6.1-22.5c0-3.2-1.5-3.7-2.1-3.8c-1.4-0.1-2.7,1.1-3.3,3.3c-0.8,3.1-7,20.3-9.6,26.6
		c-2.8,6.7-4.7,13-4.7,22.2c0,9.2,4.6,28.3,8.8,40.6c3.4,10,3.7,17.2,2.1,18.4c-0.6,0.4-1.9,0-3.5-1.3l-0.5-0.4
		c-8.1-6.4-15.8-12.4-29.2-38.8c-9.3-18.1-14-35.4-14-51.3c0-6.9,0.7-15.9,6.3-23.7c1-1.3,1.2-3.6,0.1-4.7c-0.3-0.3-1.4-1.1-3.1,0.3
		l-0.1,0.1c-3.6,2.8-12,11.1-12,28.1c0,14.5,5.7,32.2,17.3,54.4c10.8,20.5,21.1,36,30.7,46.2c7.1,7.5,12.9,11.4,16.7,11.4
		c0.8,0,1.4-0.2,2-0.5C453.9,490.9,455.5,488.6,454.1,482.6z"/>
	<path class="st0" d="M453.8,194.3c3.6-6.9,5.8-11.3,6.6-13.6c0.4-1.2,1.4-4-0.2-5.8c-1.4-1.5-4.1-1.8-8.3-0.8
		c-9.9,2.3-34.4,17.6-50.4,36.3c-17,20-17,31-11.1,44.2c5.8,13,9.7,21.5,11.1,26.9c1.3,5,0.3,14.7-4.4,19.2c-5,4.8-10,7.4-20.2,6.9
		l-1.1-0.1c-12.1-0.6-21.7-1.1-28,10.3c-1.5,2.8-1.7,5-0.3,5.9c0.2,0.1,0.6,0.3,1,0.3c0.9,0,2.1-0.5,3.7-2.6
		c4.6-5.9,12.1-6.4,22.5-7.1l2.4-0.2c11.4-0.8,19.2-2.7,25.6-10.2c5.2-6.1,10.5-13.7,7-25.9c-2.1-7.6-5.6-16-8.2-22.2
		c-1.2-3-2.2-5.4-2.7-6.8l-0.8-2.3c-3.5-10.2-4.6-13.6,7.5-32c4.7-7.1,17.2-19,29-22.2c4.8-1.3,7.9-1.2,9.1,0.2
		c1.1,1.2,0.9,3.8-0.6,7.5c-0.6,1.5-1.5,3.4-2.4,5.5c-3.5,7.6-8.3,18-8.3,27.5c0,10,4.3,20,8.4,29.7c0.9,2,1.7,4,2.5,6
		c4.9,12.2,7.1,22.6,7.3,34.9c0,1.6,1.3,3,2.7,3c0.3,0,2.3-0.1,2.3-3.2c0-0.2,0-0.5,0.1-0.9c0.9-12.5-0.7-24.9-5-36.8
		c-1.6-4.4-3-8.1-4.2-11.4c-4.3-11.6-6.3-16.9-6.3-25.9c0-9.6,6.9-22,11.4-30.2C452.5,196.9,453.2,195.5,453.8,194.3z"/>
	<path class="st0" d="M942.4,500c0,244.3-198.1,442.4-442.4,442.4C255.7,942.4,57.6,744.3,57.6,500S255.7,57.6,500,57.6
		C744.3,57.6,942.4,255.7,942.4,500 M990,500c0-270.6-219.4-490-490-490C229.4,10,10,229.4,10,500s219.4,490,490,490
		C770.6,990,990,770.6,990,500"/>
</g>
</svg>
