<?xml version="1.0" encoding="utf-8"?>
<!-- Generator: Adobe Illustrator 26.0.3, SVG Export Plug-In . SVG Version: 6.00 Build 0)  -->
<svg version="1.1" id="Ebene_1" xmlns="http://www.w3.org/2000/svg" xmlns:xlink="http://www.w3.org/1999/xlink" x="0px" y="0px"
	 viewBox="0 0 1000 1000" style="enable-background:new 0 0 1000 1000;" xml:space="preserve">
<style type="text/css">
	.st0{opacity:0.6;}
	.st1{opacity:0.6;stroke:#1D1D1B;stroke-width:0.25;stroke-miterlimit:10;}
</style>
<path class="st0" d="M942.4,500c0,244.3-198.1,442.4-442.4,442.4C255.7,942.4,57.6,744.3,57.6,500S255.7,57.6,500,57.6
	C744.3,57.6,942.4,255.7,942.4,500 M990,500c0-270.6-219.4-490-490-490C229.4,10,10,229.4,10,500s219.4,490,490,490
	C770.6,990,990,770.6,990,500"/>
<polygon class="st0" points="384.8,579.9 366.6,644.8 290.6,644.8 290.6,353.8 310.5,353.8 310.5,333.9 210.6,333.9 210.6,353.8 
	230.5,353.8 230.5,644.8 210.6,644.7 210.6,664.6 361,664.7 361,664.7 398.3,664.7 404.7,579.9 "/>
<path class="st1" d="M644.1,250.9"/>
<polygon class="st0" points="776.9,579.9 758.7,644.8 683.3,644.8 791.9,333.9 627.4,333.9 627.4,333.9 605,333.9 521.7,572.3 
	445.3,353.8 465.1,353.8 465.1,333.9 362.6,333.9 362.6,353.8 382.5,353.8 491.6,665.8 511.5,665.8 620.5,353.8 722.2,353.8 
	613.3,664.7 753.1,664.7 790.4,664.7 790.4,664.7 796.8,579.9 "/>
</svg>
