<?xml version="1.0" encoding="utf-8"?>
<!-- Generator: Adobe Illustrator 26.0.3, SVG Export Plug-In . SVG Version: 6.00 Build 0)  -->
<svg version="1.1" id="Ebene_1" xmlns="http://www.w3.org/2000/svg" xmlns:xlink="http://www.w3.org/1999/xlink" x="0px" y="0px"
	 viewBox="0 0 1000 1000" style="enable-background:new 0 0 1000 1000;" xml:space="preserve">
<path d="M942.4,500c0,244.3-198.1,442.4-442.4,442.4S57.6,744.3,57.6,500S255.7,57.6,500,57.6S942.4,255.7,942.4,500 M990,500
	c0-270.6-219.4-490-490-490S10,229.4,10,500s219.4,490,490,490S990,770.6,990,500"/>
<path d="M827.3,549.9l-24.7,85.8h-60.2l91.2-287.1H778h-1.8h-76.9l-26.5,0l-5.1,101.9l16.2,0l24.7-85.8h62.5l-86,271h-32.2
	l-91.2-287.1h-16l-91.2,287.1h-28.7v-271H442v-16.1h-16.1v0h-54.8v0h0L304.2,559l-66.8-210.5h-41.2v0h-16.1v0H164v16.1h16.1v271H164
	v16.1h16.1h16.1h16.1v-16.1h-16.1V399.4l80.1,252.4h16l78.6-247.7v231.6h-16.1v16.1h16.1h54.8h30v0l32,0v-16.1h-15.6l26.3-82.9h70.7
	l26.3,82.9h-15.7v16.1h20.8h14.1h26H658H680l0,0h41.3h16v0H798v0l40.4,0l5.1-101.9L827.3,549.9z M503.7,536.6l30.2-95.3l30.3,95.3
	H503.7z"/>
</svg>
