<svg id="Ebene_1" data-name="Ebene 1" xmlns="http://www.w3.org/2000/svg" viewBox="0 0 1000 1000"><defs><style>.cls-1{opacity:0.6;}</style></defs><g class="cls-1"><path d="M548.35,330.5H706c81,0,109.72,40.18,109.72,107.3,0,67.76-21.6,113.33-109.13,113.33H646.06v58.18h33v56.93H548.94V609.31h27V389.86h-27ZM698.26,496.56c33.56,0,47.35-13.78,47.35-54,0-42-13.79-55.16-47.94-55.16H645.53V496.56ZM412.13,330.5v58.77h28.76V531.36L328.14,330.5H223.81v59.36h27V609.25h-27v56.94H343.72V610.44h-30V443.78L440.84,666.24H505V389.86H530.8V330.5H412.13ZM942.38,500c0,244.32-198.06,442.38-442.38,442.38S57.62,744.32,57.62,500,255.68,57.62,500,57.62,942.38,255.68,942.38,500M990,500C990,229.38,770.62,10,500,10S10,229.38,10,500,229.38,990,500,990,990,770.62,990,500"/></g></svg>