<svg id="Layer_1" data-name="Layer 1" xmlns="http://www.w3.org/2000/svg" xmlns:xlink="http://www.w3.org/1999/xlink" viewBox="0 0 980 979.99997">
  <defs>
    <style>
      .cls-1 {
        fill: none;
      }

      .cls-2 {
        clip-path: url(#clip-path);
      }

      .cls-3 {
        fill: #fff;
      }
    </style>
    <clipPath id="clip-path" transform="translate(-9.99988 -9.99902)">
      <rect class="cls-1" width="1000" height="1000"/>
    </clipPath>
  </defs>
  <title>OZ_Logo_Weiss</title>
  <g class="cls-2">
    <path class="cls-3" d="M581.89789,273.444l-78.146,16.625-17.35,90.119-16.482-90.119-78.09-16.625,78.09-16.625,16.482-81.382,13.866,81.382Zm194.404,294.935a11.83814,11.83814,0,0,1-.86,4.375c-5.198,20.123-12.147,39.391-28.633,59.522-20.825,26.231-67.713,28.01-83.335,28.873-16.495.87-56.421-.863-56.421-.863v-4.367l173.583-287.925h-247.345l-6.949,86.622h10.428a151.96334,151.96334,0,0,1,5.19305-21.86c4.334-10.526,8.673-20.995,19.97095-29.737,10.437-7.87805,22.585-16.621,47.738-16.621h65.949v6.094l-164.056,273.893v11.389H777.16083l11.288-109.395Zm-427.887-208.317c-60.746,0-114.547,36.75-137.136,94.499-7.809,19.262-10.425,45.494-10.425,68.268,0,90.124,65.936,162.773,147.561,162.773,80.72,0,146.655-72.649,147.565-162.773,0-22.774-2.615-49.006-10.424-69.133-23.449-57.747-76.386-93.634-137.141-93.634m66.803,161.043c-1.714,94.5-28.637,138.266-66.854,138.266-38.211,0-67.709-43.766-66.854-138.266.86-35.892,4.334-71.78,15.636-96.283,12.147-26.23,32.113-41.122,52.078-41.122,19.106,0,39.075,13.977,52.937,40.259,11.343,24.498,13.968,60.391,13.057,97.146m527.163-21.106c0,244.32-198.063,442.385-442.381,442.385S57.6189,744.319,57.6189,499.999c0-244.321,198.063-442.385,442.381-442.385s442.381,198.064,442.381,442.385m47.619,0c0-270.621-219.381-490-490-490-270.618,0-490,219.379-490,490s219.382,490,490,490c270.619,0,490-219.379,490-490" transform="translate(-9.99988 -9.99902)"/>
  </g>
</svg>
