<svg id="Ebene_1" data-name="Ebene 1" xmlns="http://www.w3.org/2000/svg" viewBox="0 0 1000 1000"><defs><style>.cls-1{fill:#4f80ff;}</style></defs><path class="cls-1" d="M581.9,273.44l-78.15,16.63L486.4,380.19l-16.48-90.12-78.09-16.63,78.09-16.62,16.48-81.38,13.87,81.38ZM776.3,568.38a11.81,11.81,0,0,1-.86,4.37c-5.2,20.13-12.15,39.39-28.63,59.53-20.83,26.23-67.71,28-83.34,28.87-16.49.87-56.42-.86-56.42-.86v-4.37L780.64,368H533.29l-6.95,86.63h10.43A152.31,152.31,0,0,1,542,432.76c4.34-10.53,8.68-21,20-29.74,10.44-7.88,22.59-16.62,47.74-16.62h66v6.09l-164,273.9v11.38H777.16l11.29-109.39ZM348.42,360.06c-60.75,0-114.55,36.75-137.14,94.5-7.81,19.26-10.43,45.49-10.43,68.27,0,90.12,65.94,162.77,147.57,162.77C429.14,685.6,495.07,613,496,522.83c0-22.78-2.62-49-10.42-69.13-23.45-57.75-76.39-93.64-137.14-93.64m66.8,161.05c-1.72,94.5-28.64,138.26-66.86,138.26s-67.7-43.76-66.85-138.26c.86-35.9,4.33-71.78,15.64-96.29,12.14-26.23,32.11-41.12,52.07-41.12,19.11,0,39.08,14,52.94,40.26,11.34,24.5,14,60.39,13.06,97.15M942.38,500c0,244.32-198.06,442.38-442.38,442.38S57.62,744.32,57.62,500,255.68,57.61,500,57.61,942.38,255.68,942.38,500M990,500C990,229.38,770.62,10,500,10S10,229.38,10,500,229.38,990,500,990,990,770.62,990,500"/></svg>