<svg id="Ebene_1" data-name="Ebene 1" xmlns="http://www.w3.org/2000/svg" viewBox="0 0 1000 1000"><defs><style>.cls-1{opacity:0.6;}</style></defs><g class="cls-1"><path d="M296.52,412.61H253.14a2.06,2.06,0,0,0-2.35,2.3v66.23a2.09,2.09,0,0,0,2.35,2.34h43.38c24,0,38.35-14,38.35-35.26s-14.36-35.61-38.35-35.61m3.49,120H253.14a2.09,2.09,0,0,0-2.35,2.35v87.92a3.63,3.63,0,0,1-3.84,3.84H197.73a3.63,3.63,0,0,1-3.84-3.84V367.28a3.65,3.65,0,0,1,3.84-3.89H300c57.3,0,91.77,34.46,91.77,84.83,0,49.57-34.86,84.43-91.77,84.43m227.21-4.25H466.41l29.82-92.19h1.16Zm88.69,94.51L526.84,367.28c-.78-2.33-2.33-3.88-5-3.88H473c-2.71,0-4.27,1.55-5,3.88L377.33,622.91c-.78,2.32,0,3.87,2.71,3.87h50.74c2.71,0,4.26-1.16,5-3.87l14.72-46.09h92.18l15.11,46.09c.77,2.71,2.32,3.87,5,3.87h50.36c2.7,0,3.48-1.55,2.7-3.87m24.28,3.87a3.66,3.66,0,0,1-3.88-3.87V580.3a6.55,6.55,0,0,1,1.17-3.88L751,414.91v-.77H644.44a3.66,3.66,0,0,1-3.87-3.87v-43a3.66,3.66,0,0,1,3.87-3.88H812.93a3.66,3.66,0,0,1,3.87,3.88v42.6a6.56,6.56,0,0,1-1.16,3.87L701.77,575.26V576H812.93a3.66,3.66,0,0,1,3.87,3.87v43a3.66,3.66,0,0,1-3.87,3.87ZM942.38,498.52c0,244.32-198.06,442.39-442.38,442.39S57.62,742.84,57.62,498.52,255.68,56.14,500,56.14,942.38,254.2,942.38,498.52m47.62,0c0-270.62-219.38-490-490-490S10,227.9,10,498.52s219.38,490,490,490,490-219.38,490-490"/></g></svg>