<svg id="Ebene_1" data-name="Ebene 1" xmlns="http://www.w3.org/2000/svg" viewBox="0 0 1000 1000"><path d="M296.52,414.09H253.14a2.06,2.06,0,0,0-2.35,2.3v66.22a2.08,2.08,0,0,0,2.35,2.34h43.38c24,0,38.35-14,38.35-35.26s-14.36-35.6-38.35-35.6m3.49,120H253.14a2.09,2.09,0,0,0-2.35,2.34V624.4a3.64,3.64,0,0,1-3.84,3.84H197.73a3.64,3.64,0,0,1-3.84-3.84V368.76a3.65,3.65,0,0,1,3.84-3.89H300c57.3,0,91.77,34.46,91.77,84.82,0,49.58-34.86,84.44-91.77,84.44m227.21-4.26H466.41l29.82-92.18h1.16Zm88.69,94.51L526.84,368.75c-.78-2.33-2.33-3.87-5-3.87H473c-2.71,0-4.27,1.54-5,3.87L377.33,624.38c-.78,2.32,0,3.88,2.71,3.88h50.74c2.71,0,4.26-1.16,5-3.88l14.72-46.09h92.18l15.11,46.09c.77,2.72,2.32,3.88,5,3.88h50.36c2.7,0,3.48-1.56,2.7-3.88m24.28,3.88a3.67,3.67,0,0,1-3.88-3.88v-42.6a6.55,6.55,0,0,1,1.17-3.88L751,416.39v-.77H644.44a3.66,3.66,0,0,1-3.87-3.88v-43a3.65,3.65,0,0,1,3.87-3.87H812.93a3.65,3.65,0,0,1,3.87,3.87v42.61a6.56,6.56,0,0,1-1.16,3.87L701.77,576.74v.78H812.93a3.66,3.66,0,0,1,3.87,3.87v43a3.67,3.67,0,0,1-3.87,3.88ZM942.38,500c0,244.32-198.06,442.38-442.38,442.38S57.62,744.32,57.62,500,255.68,57.61,500,57.61,942.38,255.68,942.38,500M990,500C990,229.38,770.62,10,500,10S10,229.38,10,500,229.38,990,500,990,990,770.62,990,500"/></svg>