<?xml version="1.0" encoding="utf-8"?>
<!-- Generator: Adobe Illustrator 21.0.0, SVG Export Plug-In . SVG Version: 6.00 Build 0)  -->
<svg version="1.1" id="Ebene_1" xmlns="http://www.w3.org/2000/svg" xmlns:xlink="http://www.w3.org/1999/xlink" x="0px" y="0px"
	 viewBox="0 0 1000 1000" style="enable-background:new 0 0 1000 1000;" xml:space="preserve">
<style type="text/css">
	.st0{opacity:0.6;fill:#FFFFFF;}
</style>
<path class="st0" d="M715.9,433h-15.2c-1-0.1-2,0.6-2.1,1.6c0,0.2,0,0.4,0,0.5v126.7c-0.2,1,0.5,2,1.6,2.1c0.2,0,0.4,0,0.5,0h15.2
	c51.9,0,60.6-19.5,60.6-63.7S767.7,433,715.9,433 M731.9,621.9H637c-1.8,0.1-3.4-1.3-3.5-3.1c0-0.1,0-0.3,0-0.4v-235
	c-0.1-1.8,1.2-3.4,3.1-3.5c0.1,0,0.3,0,0.4,0h94.8c53.2,0,109.4,23.9,109.4,121C841.3,593.1,785,621.8,731.9,621.9 M308.6,377.8
	c-19.6,0-53.9,14.6-59.7,55.6l-0.5-25.1v-20.1c0.2-2.6-1.8-4.8-4.4-4.9c-0.2,0-0.4,0-0.6,0h-59.1c-2.6-0.2-4.8,1.8-4.9,4.4
	c0,0.2,0,0.4,0,0.6V617c-0.2,2.6,1.8,4.8,4.4,4.9c0.2,0,0.4,0,0.6,0h59.2c2.6,0.2,4.8-1.8,4.9-4.4c0-0.2,0-0.4,0-0.6V491.3
	c0-32,11.3-50.8,37-51.8c11.8-0.5,23.2,3.5,34.5,10.8c3,1.5,4.9,1.5,6.9-1l27.6-50.3c1.5-3,1-4.9-1.5-6.9
	c-10.4-8.9-26.1-14.3-41.9-14.3L308.6,377.8z M449.3,433.5l-0.5-28.5v-16.6c0.2-2.6-1.8-4.8-4.4-4.9c-0.2,0-0.4,0-0.6,0h-59.1
	c-2.6-0.2-4.8,1.8-4.9,4.4c0,0.2,0,0.4,0,0.6V617c-0.2,2.6,1.8,4.8,4.4,4.9c0.2,0,0.4,0,0.6,0h59.1c2.6,0.2,4.8-1.8,4.9-4.4
	c0-0.2,0-0.4,0-0.6V480c0-26.1,13.8-43.4,37.5-43.4c24.6,0,37,17.3,37,43.4v137c-0.2,2.6,1.8,4.8,4.4,4.9c0.2,0,0.4,0,0.6,0h59.1
	c2.6,0.2,4.8-1.8,4.9-4.4c0-0.2,0-0.4,0-0.6V466.6c0-48.7-29.5-88.6-77-88.6c-38,0-63.4,34.2-65.9,55.6 M942.2,499.9
	c0,244.3-198.1,442.4-442.4,442.4S57.4,744.3,57.4,499.9S255.5,57.5,499.8,57.5S942.2,255.6,942.2,499.9 M989.8,499.9
	c0-270.6-219.4-490-490-490s-490,219.4-490,490s219.4,490,490,490S989.8,770.5,989.8,499.9"/>
</svg>
