<svg id="Ebene_1" data-name="Ebene 1" xmlns="http://www.w3.org/2000/svg" xmlns:xlink="http://www.w3.org/1999/xlink" viewBox="0 0 1000 1000"><defs><style>.cls-1{fill:none;}.cls-2{clip-path:url(#clip-path);}.cls-3{fill:#4f80ff;}</style><clipPath id="clip-path"><rect class="cls-1" x="10" y="10" width="980" height="979.99"/></clipPath></defs><g class="cls-2"><path class="cls-3" d="M716.06,433.06H700.9a1.87,1.87,0,0,0-2.1,2.14V561.94a1.87,1.87,0,0,0,2.1,2.13h15.16c51.87,0,60.6-19.52,60.6-63.69s-8.73-67.32-60.6-67.32m16,188.92H637.21a3.31,3.31,0,0,1-3.49-3.54v-235a3.32,3.32,0,0,1,3.49-3.55h94.85c53.2,0,109.41,23.94,109.41,121,0,92.26-56.21,121.05-109.41,121.05M308.78,378c-19.65,0-53.88,14.64-59.66,55.63l-.49-25.08V388.36a4.65,4.65,0,0,0-4.93-4.92H184.56a4.65,4.65,0,0,0-4.93,4.92v228.7a4.65,4.65,0,0,0,4.93,4.92H243.7a4.65,4.65,0,0,0,4.93-4.92V491.37c0-32,11.33-50.76,37-51.74,11.82-.5,23.16,3.44,34.49,10.84,3,1.47,4.93,1.47,6.9-1l27.6-50.27c1.48-3,1-4.93-1.48-6.9C342.76,383.44,327,378,311.22,378Zm140.69,55.63L449,405.12V388.36a4.65,4.65,0,0,0-4.93-4.92H384.91a4.65,4.65,0,0,0-4.93,4.92v228.7a4.65,4.65,0,0,0,4.93,4.92h59.14a4.65,4.65,0,0,0,4.93-4.92V480c0-26.12,13.8-43.38,37.46-43.38,24.64,0,37,17.26,37,43.38v137a4.65,4.65,0,0,0,4.92,4.92h59.15a4.65,4.65,0,0,0,4.92-4.92V466.73c0-48.72-29.46-88.65-77-88.65-38,0-63.38,34.23-65.93,55.57M942.38,500c0,244.32-198.06,442.38-442.38,442.38S57.62,744.32,57.62,500,255.68,57.62,500,57.62,942.38,255.68,942.38,500M990,500C990,229.38,770.62,10,500,10S10,229.38,10,500,229.38,990,500,990,990,770.62,990,500"/></g></svg>