<svg id="Ebene_1" data-name="Ebene 1" xmlns="http://www.w3.org/2000/svg" xmlns:xlink="http://www.w3.org/1999/xlink" viewBox="0 0 1000 1000"><defs><style>.cls-1{fill:#fff;}.cls-2{opacity:0.6;}.cls-3{clip-path:url(#clip-path);}</style><clipPath id="clip-path"><rect class="cls-1" x="9.81" y="9.93" width="980" height="979.99"/></clipPath></defs><g class="cls-2"><rect class="cls-1" x="9.81" y="9.93" width="980" height="979.99"/><g class="cls-3"><path class="cls-1" d="M715.87,433H700.71a1.87,1.87,0,0,0-2.1,2.14V561.86a1.87,1.87,0,0,0,2.1,2.14h15.16c51.87,0,60.6-19.52,60.6-63.69S767.74,433,715.87,433m16,188.92H637a3.32,3.32,0,0,1-3.49-3.55v-235a3.32,3.32,0,0,1,3.49-3.55h94.85c53.2,0,109.41,23.94,109.41,121,0,92.26-56.21,121-109.41,121m-423.28-244c-19.65,0-53.88,14.65-59.66,55.63l-.49-25.07V388.29a4.66,4.66,0,0,0-4.93-4.93H184.36a4.65,4.65,0,0,0-4.92,4.93V617a4.65,4.65,0,0,0,4.92,4.93h59.15a4.66,4.66,0,0,0,4.93-4.93V491.3c0-32,11.33-50.76,37-51.75,11.83-.49,23.16,3.45,34.5,10.84,3,1.48,4.93,1.48,6.9-1l27.6-50.28c1.48-2.95,1-4.92-1.48-6.9-10.35-8.87-26.12-14.29-41.89-14.29Zm140.69,55.63-.49-28.52V388.29a4.66,4.66,0,0,0-4.93-4.93H384.72a4.66,4.66,0,0,0-4.93,4.93V617a4.66,4.66,0,0,0,4.93,4.93h59.14a4.66,4.66,0,0,0,4.93-4.93V480c0-26.12,13.8-43.37,37.46-43.37,24.64,0,37,17.25,37,43.37V617a4.66,4.66,0,0,0,4.93,4.93h59.14a4.66,4.66,0,0,0,4.93-4.93V466.65c0-48.71-29.46-88.64-77-88.64-38,0-63.38,34.23-65.93,55.56m492.91,66.36c0,244.32-198.06,442.38-442.38,442.38S57.43,744.25,57.43,499.93,255.49,57.54,499.81,57.54,942.19,255.61,942.19,499.93m47.62,0c0-270.62-219.38-490-490-490s-490,219.38-490,490,219.38,490,490,490,490-219.38,490-490"/></g></g></svg>