<svg id="Ebene_1" data-name="Ebene 1" xmlns="http://www.w3.org/2000/svg" viewBox="0 0 1000 1000"><defs><style>.cls-1{fill:#6bb024;}</style></defs><path class="cls-1" d="M449.81,553.21c0-36.91-18.76-62.94-59.31-82.3-18.75-9.08-38.73-16.35-56.28-24.21-35.71-15.74-45.39-33.9-45.39-57.49,0-29.66,18.76-48.43,47.21-48.43,32.67,0,61.73,27.24,89.56,82.32l10.29-1.22-9.07-98.64h-8.48L399,340.18c-16.35-9.68-33.29-16.33-58.71-16.33C290,323.85,238,360.15,238,419.46c0,36.92,18.75,64.15,53.25,81.71,15.73,7.26,33.89,13.92,50.23,20.57,47.21,19.37,58.7,33.9,58.7,64.16,0,31.47-21.17,55.07-56.89,55.07-34.49,0-71.4-23-102.89-95.62l-10.88,1.81,6.06,111.37h9.07L264,641c19.37,10.29,46,17.56,76.26,17.56,53.87,0,109.54-38.74,109.54-105.32M562.92,331.85l40.83,51.73L733.06,542.83h4.08V359.08L695,341.39v-8.17H802.48v8.17l-42.2,17.69V658.53H731.7L690.86,606.8l-162-200.09h-4.08V628.58L567,646.27v8.17H459.47v-8.17l42.2-17.69h-4.08V356.36L458.12,340v-8.18ZM942.39,500c0,244.32-198.07,442.38-442.39,442.38S57.61,744.32,57.61,500,255.68,57.61,500,57.61,942.39,255.68,942.39,500M990,500C990,229.38,770.62,10,500,10S10,229.38,10,500,229.38,990,500,990,990,770.62,990,500"/></svg>